# File created by Blade
# Date/Time:  Tue Sep 28 14:35:47 2010
#---------------------------------------------------------
:version 1.10
:name HOM
:units
  mass 1.0
  length 1.000000
  angle deg
:documentation
     Acclaim Skeleton File
:root
   axis xyz
   order TX TY TZ RX RY RZ
   position 0.000000 0.000000 0.000000
   orientation 0 0 0
:bonedata
   begin
      id 1
      name LeftUpLeg_dum
      direction 1.000000 0.000000 0.000000
      length 3.677894
      axis 0.0 0.0 0.0 xyz
   end
   begin
      id 2
      name RightUpLeg_dum
      direction -1.000000 0.000000 0.000000
      length 3.677894
      axis 0.0 0.0 0.0 xyz
   end
   begin
      id 3
      name Spine_dum
      direction 0.000000 1.000000 0.000000
      length 0.039370
      axis 0.0 0.0 0.0 xyz
   end
   begin
      id 4
      name LeftUpLeg
      direction 0.000000 -1.000000 0.000000
      length 18.389491
      axis 0.0 0.0 0.0 xyz
      dof rx ry rz
   end
   begin
      id 5
      name LeftLeg
      direction 0.000000 -1.000000 0.000000
      length 16.918313
      axis 0.0 0.0 0.0 xyz
      dof rx ry rz
   end
   begin
      id 6
      name LeftFoot
      direction 0.000000 -0.258819 0.965926
      length 6.436326
      axis 15.0 0.0 0.0 xyz
      dof rx ry rz
   end
   begin
      id 7
      name LeftToeBase
      direction 0.000000 0.000000 1.000000
      length 2.952750
      axis 0.0 0.0 0.0 xyz
      dof rx ry rz
   end
   begin
      id 8
      name RightUpLeg
      direction 0.000000 -1.000000 0.000000
      length 18.389491
      axis 0.0 0.0 0.0 xyz
      dof rx ry rz
   end
   begin
      id 9
      name RightLeg
      direction 0.000000 -1.000000 0.000000
      length 16.918313
      axis 0.0 0.0 0.0 xyz
      dof rx ry rz
   end
   begin
      id 10
      name RightFoot
      direction 0.000000 -0.258819 0.965926
      length 6.436326
      axis 15.0 0.0 0.0 xyz
      dof rx ry rz
   end
   begin
      id 11
      name RightToeBase
      direction 0.000000 0.000000 1.000000
      length 2.952750
      axis 0.0 0.0 0.0 xyz
      dof rx ry rz
   end
   begin
      id 12
      name Spine
      direction 0.000000 1.000000 0.000000
      length 9.194745
      axis 0.0 0.0 0.0 xyz
      dof rx ry rz
   end
   begin
      id 13
      name Spine1
      direction 0.000000 1.000000 0.000000
      length 0.000000
      axis 0.0 0.0 0.0 xyz
      dof rx ry rz
   end
   begin
      id 14
      name Spine1_dum1
      direction 0.000000 1.000000 0.000000
      length 9.194745
      axis 0.0 0.0 0.0 xyz
   end
   begin
      id 15
      name Spine1_dum2
      direction 0.000000 1.000000 0.000000
      length 9.194745
      axis 0.0 0.0 0.0 xyz
   end
   begin
      id 16
      name Spine1_dum3
      direction 0.000000 1.000000 0.000000
      length 9.194745
      axis 0.0 0.0 0.0 xyz
   end
   begin
      id 17
      name Neck
      direction 0.000000 1.000000 0.000000
      length 4.229598
      axis 0.0 0.0 0.0 xyz
      dof rx ry rz
   end
   begin
      id 18
      name Head
      direction 0.000000 1.000000 0.000000
      length 4.527550
      axis 0.0 0.0 0.0 xyz
      dof rx ry rz
   end
   begin
      id 19
      name LeftShoulder
      direction 1.000000 -0.000004 0.000000
      length 5.516839
      axis 0.0 0.0 -90.0 xyz
      dof rx ry rz
   end
   begin
      id 20
      name LeftArm
      direction 1.000000 -0.000004 0.000000
      length 11.033679
      axis 0.0 0.0 -90.0 xyz
      dof rx ry rz
   end
   begin
      id 21
      name LeftForeArm
      direction 1.000000 -0.000004 0.000000
      length 10.114232
      axis 0.0 0.0 -90.0 xyz
      dof rx ry rz
   end
   begin
      id 22
      name LeftHand
      direction 0.000000 0.000000 0.000000
      length 0.000000
      axis 0.0 0.0 -90.0 xyz
      dof rx ry rz
   end
   begin
      id 23
      name LeftHand_dum1
      direction 0.000000 0.000000 0.000000
      length 0.000000
      axis 0.0 0.0 -90.0 xyz
   end
   begin
      id 24
      name LeftHand_dum2
      direction 1.000000 -0.000004 0.000000
      length 3.937000
      axis 0.0 0.0 -90.0 xyz
   end
   begin
      id 25
      name LeftHandThumb
      direction 0.000000 0.000000 1.000000
      length 3.937000
      axis 0.0 0.0 -90.0 xyz
      dof rx ry rz
   end
   begin
      id 26
      name RightShoulder
      direction -1.000000 -0.000004 0.000000
      length 5.516839
      axis 0.0 0.0 90.0 xyz
      dof rx ry rz
   end
   begin
      id 27
      name RightArm
      direction -1.000000 -0.000004 0.000000
      length 11.033679
      axis 0.0 0.0 90.0 xyz
      dof rx ry rz
   end
   begin
      id 28
      name RightForeArm
      direction -1.000000 -0.000004 0.000000
      length 10.114232
      axis 0.0 0.0 90.0 xyz
      dof rx ry rz
   end
   begin
      id 29
      name RightHand
      direction 0.000000 0.000000 0.000000
      length 0.000000
      axis 0.0 0.0 90.0 xyz
      dof rx ry rz
   end
   begin
      id 30
      name RightHand_dum1
      direction 0.000000 0.000000 0.000000
      length 0.000000
      axis 0.0 0.0 90.0 xyz
   end
   begin
      id 31
      name RightHand_dum2
      direction -1.000000 -0.000004 0.000000
      length 5.393690
      axis 0.0 0.0 90.0 xyz
   end
   begin
      id 32
      name RightHandThumb
      direction 0.000000 0.000000 1.000000
      length 3.937000
      axis 0.0 0.0 90.0 xyz
      dof rx ry rz
   end
:hierarchy
   begin
      root LeftUpLeg_dum RightUpLeg_dum Spine_dum
      LeftUpLeg_dum LeftUpLeg
      RightUpLeg_dum RightUpLeg
      Spine_dum Spine
      LeftUpLeg LeftLeg
      LeftLeg LeftFoot
      LeftFoot LeftToeBase
      RightUpLeg RightLeg
      RightLeg RightFoot
      RightFoot RightToeBase
      Spine Spine1
      Spine1 Spine1_dum1 Spine1_dum2 Spine1_dum3
      Spine1_dum1 Neck
      Spine1_dum2 LeftShoulder
      Spine1_dum3 RightShoulder
      Neck Head
      LeftShoulder LeftArm
      LeftArm LeftForeArm
      LeftForeArm LeftHand
      LeftHand LeftHand_dum1 LeftHand_dum2
      LeftHand_dum1 LeftHandThumb
      RightShoulder RightArm
      RightArm RightForeArm
      RightForeArm RightHand
      RightHand RightHand_dum1 RightHand_dum2
      RightHand_dum1 RightHandThumb
   end

# File created by Blade
# Date/Time:  Tue Sep 28 14:35:42 2010
# Frame Rate: 200.000 fps
#------------------------------------------------------
:FULLY-SPECIFIED
:DEGREES
562
root  1.485398 37.101696 -7.544076 7.257207 -1.446991 1.591097
LeftUpLeg  -22.105624 5.162184 -5.845866
LeftLeg  21.166844 -0.000000 0.000000
LeftFoot  5.696413 15.828520 11.550733
LeftToeBase  -8.145495 0.000000 -0.000000
RightUpLeg  -10.167989 -13.245482 -5.367747
RightLeg  54.903417 -0.000000 -0.000000
RightFoot  31.795704 -3.495451 -16.404829
RightToeBase  -8.885449 0.000000 -0.000000
Spine  -14.595960 -2.144950 -5.511023
Spine1  14.567863 1.021672 3.013266
Neck  9.954369 1.639731 -5.355344
Head  -9.532146 2.324857 1.876920
LeftShoulder  -7.041345 -9.817303 -26.931908
LeftArm  0.326297 43.314346 -39.157788
LeftForeArm  28.469868 -0.000000 0.000000
LeftHand  3.834644 -6.089079 0.012999
LeftHandThumb  0.000000 -0.000000 0.000000
RightShoulder  1.835757 6.307797 23.585881
RightArm  -1.861567 -49.042086 42.043852
RightForeArm  28.970338 -0.000000 0.000000
RightHand  5.318249 13.105290 -0.296877
RightHandThumb  0.000000 -0.000000 0.000000
563
root  1.518016 37.133364 -7.322771 7.197301 -1.425370 1.540574
LeftUpLeg  -21.676272 5.526780 -5.880742
LeftLeg  21.104738 -0.000000 0.000000
LeftFoot  5.488554 15.598336 11.610077
LeftToeBase  -8.333649 0.000000 -0.000000
RightUpLeg  -10.742764 -13.350530 -5.284071
RightLeg  55.705941 -0.000000 -0.000000
RightFoot  31.212296 -3.732313 -16.537158
RightToeBase  -9.152805 0.000000 -0.000000
Spine  -14.576263 -2.201191 -5.456804
Spine1  14.554840 0.948783 3.033727
Neck  10.005901 1.878979 -5.376857
Head  -9.641237 2.502016 1.867594
LeftShoulder  -7.078559 -9.674589 -27.011806
LeftArm  0.247962 43.542524 -39.195781
LeftForeArm  28.120013 -0.000000 0.000000
LeftHand  3.688990 -5.890674 -0.128019
LeftHandThumb  0.000000 -0.000000 0.000000
RightShoulder  1.802889 6.456311 23.513299
RightArm  -1.850372 -49.045194 41.979088
RightForeArm  29.367863 -0.000000 0.000000
RightHand  5.583448 13.313371 -0.419641
RightHandThumb  0.000000 -0.000000 0.000000
564
root  1.545457 37.165948 -7.111272 7.136299 -1.360231 1.495776
LeftUpLeg  -21.311714 5.731786 -5.876808
LeftLeg  21.152280 -0.000000 0.000000
LeftFoot  5.349362 15.390653 11.624193
LeftToeBase  -8.771959 0.000000 -0.000000
RightUpLeg  -11.309727 -13.437008 -5.173200
RightLeg  56.421535 -0.000000 -0.000000
RightFoot  30.735352 -3.995319 -16.566301
RightToeBase  -9.826147 0.000000 -0.000000
Spine  -14.532680 -2.255470 -5.418629
Spine1  14.562930 0.882756 3.043936
Neck  9.996473 1.901205 -5.358699
Head  -9.640197 2.514840 1.843468
LeftShoulder  -7.055567 -9.679641 -27.062776
LeftArm  0.064343 43.954748 -39.276480
LeftForeArm  27.744996 -0.000000 0.000000
LeftHand  3.583179 -5.672653 -0.172483
LeftHandThumb  0.000000 -0.000000 0.000000
RightShoulder  1.766187 6.485633 23.453545
RightArm  -1.689005 -48.810919 41.825201
RightForeArm  29.719144 -0.000000 0.000000
RightHand  5.906252 13.130444 -0.568745
RightHandThumb  0.000000 -0.000000 0.000000
565
root  1.578409 37.192470 -6.887054 7.083144 -1.303739 1.429283
LeftUpLeg  -20.807058 6.012986 -5.868036
LeftLeg  20.968274 -0.000000 0.000000
LeftFoot  4.881233 15.091867 11.506428
LeftToeBase  -8.253901 0.000000 -0.000000
RightUpLeg  -11.924157 -13.639071 -5.077715
RightLeg  57.261965 -0.000000 -0.000000
RightFoot  29.936943 -4.136055 -16.505490
RightToeBase  -9.488172 0.000000 -0.000000
Spine  -14.538811 -2.347252 -5.339715
Spine1  14.507533 0.768333 3.070678
Neck  10.093026 1.820208 -5.369956
Head  -9.448678 2.460052 1.729552
LeftShoulder  -7.078990 -9.495744 -27.119925
LeftArm  -0.090668 44.321519 -39.340474
LeftForeArm  27.411499 -0.000000 0.000000
LeftHand  3.529402 -5.729804 -0.430156
LeftHandThumb  0.000000 -0.000000 0.000000
RightShoulder  1.714496 6.673127 23.353682
RightArm  -1.710441 -48.901543 41.738355
RightForeArm  30.296267 -0.000000 0.000000
RightHand  5.891511 13.177250 -0.434316
RightHandThumb  0.000000 -0.000000 0.000000
566
root  1.606837 37.222954 -6.673959 7.029544 -1.233277 1.372590
LeftUpLeg  -20.432222 6.264431 -5.860245
LeftLeg  20.962548 -0.000000 0.000000
LeftFoot  4.824406 14.916000 11.629439
LeftToeBase  -8.822204 0.000000 -0.000000
RightUpLeg  -12.475280 -13.812103 -4.964973
RightLeg  57.854920 -0.000000 -0.000000
RightFoot  29.504468 -4.258776 -16.698894
RightToeBase  -10.362092 0.000000 -0.000000
Spine  -14.504034 -2.413368 -5.288496
Spine1  14.511030 0.686557 3.090333
Neck  10.119858 2.036871 -5.367921
Head  -9.605297 2.633890 1.745801
LeftShoulder  -7.096593 -9.385007 -27.175464
LeftArm  -0.201425 44.576427 -39.390177
LeftForeArm  27.151230 -0.000000 0.000000
LeftHand  3.410143 -5.171496 -0.406156
LeftHandThumb  0.000000 -0.000000 0.000000
RightShoulder  1.663144 6.698454 23.288724
RightArm  -1.542518 -48.647791 41.563737
RightForeArm  30.683836 -0.000000 0.000000
RightHand  6.232884 12.862525 -0.593795
RightHandThumb  0.000000 -0.000000 0.000000
567
root  1.637454 37.249155 -6.451336 6.977866 -1.144909 1.303409
LeftUpLeg  -19.949382 6.389263 -5.801534
LeftLeg  20.822243 -0.000000 0.000000
LeftFoot  4.423872 14.713868 11.442577
LeftToeBase  -8.394880 0.000000 -0.000000
RightUpLeg  -13.067854 -14.024932 -4.844075
RightLeg  58.550983 -0.000000 -0.000000
RightFoot  28.815190 -4.374264 -16.629033
RightToeBase  -10.093573 0.000000 -0.000000
Spine  -14.511580 -2.508373 -5.211123
Spine1  14.458360 0.569663 3.119539
Neck  10.225792 1.979516 -5.381435
Head  -9.417243 2.590482 1.678137
LeftShoulder  -7.107791 -9.258268 -27.234060
LeftArm  -0.388206 45.017187 -39.456694
LeftForeArm  26.879841 -0.000000 0.000000
LeftHand  3.311650 -5.258549 -0.600643
LeftHandThumb  0.000000 -0.000000 0.000000
RightShoulder  1.603666 6.839166 23.196183
RightArm  -1.542345 -48.691581 41.468275
RightForeArm  31.255690 -0.000000 0.000000
RightHand  6.293340 12.937406 -0.621449
RightHandThumb  0.000000 -0.000000 0.000000
568
root  1.668938 37.276845 -6.234288 6.936647 -1.043533 1.228614
LeftUpLeg  -19.489624 6.584367 -5.751796
LeftLeg  20.652465 -0.000000 0.000000
LeftFoot  4.211297 14.475523 11.410077
LeftToeBase  -8.554039 0.000000 -0.000000
RightUpLeg  -13.630570 -14.228305 -4.711168
RightLeg  59.085188 -0.000000 -0.000000
RightFoot  28.310270 -4.397966 -16.770985
RightToeBase  -10.448288 0.000000 -0.000000
Spine  -14.505748 -2.593913 -5.132967
Spine1  14.458467 0.459628 3.148711
Neck  10.309876 2.123822 -5.374202
Head  -9.626350 2.743183 1.654021
LeftShoulder  -7.146128 -9.095827 -27.298048
LeftArm  -0.490737 45.245947 -39.493577
LeftForeArm  26.667931 -0.000000 0.000000
LeftHand  3.170652 -4.748022 -0.689157
LeftHandThumb  0.000000 -0.000000 0.000000
RightShoulder  1.524943 6.898617 23.104605
RightArm  -1.413279 -48.507915 41.298361
RightForeArm  31.777484 -0.000000 0.000000
RightHand  6.490227 12.823014 -0.787792
RightHandThumb  0.000000 -0.000000 0.000000
569
root  1.696871 37.303606 -6.016668 6.887342 -0.936055 1.149477
LeftUpLeg  -19.051980 6.711990 -5.683337
LeftLeg  20.565731 -0.000000 0.000000
LeftFoot  3.980117 14.307758 11.349255
LeftToeBase  -8.535896 0.000000 -0.000000
RightUpLeg  -14.188717 -14.520281 -4.568713
RightLeg  59.587404 -0.000000 -0.000000
RightFoot  27.839671 -4.437845 -16.726254
RightToeBase  -10.590126 0.000000 -0.000000
Spine  -14.505996 -2.690173 -5.056786
Spine1  14.438819 0.340909 3.181586
Neck  10.368663 2.092527 -5.361360
Head  -9.462763 2.718097 1.620039
LeftShoulder  -7.147186 -9.010126 -27.343339
LeftArm  -0.718632 45.744871 -39.585326
LeftForeArm  26.460878 -0.000000 0.000000
LeftHand  3.144252 -4.295516 -0.779097
LeftHandThumb  0.000000 -0.000000 0.000000
RightShoulder  1.468031 7.003446 23.018185
RightArm  -1.345007 -48.410220 41.167733
RightForeArm  32.294966 -0.000000 0.000000
RightHand  6.685482 12.639710 -0.736376
RightHandThumb  0.000000 -0.000000 0.000000
570
root  1.728263 37.332418 -5.800070 6.855279 -0.805227 1.055498
LeftUpLeg  -18.613430 6.952873 -5.632893
LeftLeg  20.398728 -0.000000 0.000000
LeftFoot  3.833443 14.013785 11.438288
LeftToeBase  -8.815586 0.000000 -0.000000
RightUpLeg  -14.693354 -14.814820 -4.405432
RightLeg  59.897112 -0.000000 -0.000000
RightFoot  27.473196 -4.434287 -16.995779
RightToeBase  -11.352776 0.000000 -0.000000
Spine  -14.509652 -2.784145 -4.959418
Spine1  14.446924 0.215901 3.226355
Neck  10.379191 2.126928 -5.350624
Head  -9.552383 2.721518 1.573041
LeftShoulder  -7.182668 -8.849051 -27.420051
LeftArm  -0.800412 45.953273 -39.611494
LeftForeArm  26.300610 -0.000000 0.000000
LeftHand  2.978335 -3.933518 -0.809868
LeftHandThumb  0.000000 -0.000000 0.000000
RightShoulder  1.398167 7.042678 22.918713
RightArm  -1.211609 -48.170307 40.996641
RightForeArm  32.782491 -0.000000 0.000000
RightHand  6.935772 12.814879 -0.990214
RightHandThumb  0.000000 -0.000000 0.000000
571
root  1.751197 37.356865 -5.591589 6.788479 -0.675671 0.993135
LeftUpLeg  -18.262227 6.917687 -5.536257
LeftLeg  20.495878 -0.000000 0.000000
LeftFoot  3.700884 13.962196 11.345203
LeftToeBase  -9.256636 0.000000 -0.000000
RightUpLeg  -15.263532 -14.968432 -4.235537
RightLeg  60.314914 -0.000000 -0.000000
RightFoot  27.144773 -4.447963 -17.054659
RightToeBase  -11.471089 0.000000 -0.000000
Spine  -14.477628 -2.859030 -4.911959
Spine1  14.484496 0.125764 3.243723
Neck  10.403175 2.251397 -5.315139
Head  -9.606903 2.857269 1.564835
LeftShoulder  -7.150636 -8.848863 -27.433727
LeftArm  -1.031812 46.432382 -39.694596
LeftForeArm  26.177253 -0.000000 0.000000
LeftHand  2.891736 -3.748834 -0.853662
LeftHandThumb  0.000000 -0.000000 0.000000
RightShoulder  1.329436 6.977940 22.841470
RightArm  -0.973697 -47.744312 40.787534
RightForeArm  33.258548 -0.000000 0.000000
RightHand  7.265073 12.630404 -0.977151
RightHandThumb  0.000000 -0.000000 0.000000
572
root  1.781860 37.377348 -5.368348 6.752727 -0.531680 0.887520
LeftUpLeg  -17.748207 7.055711 -5.429611
LeftLeg  20.256358 -0.000000 0.000000
LeftFoot  3.260699 13.691987 11.132919
LeftToeBase  -8.767854 0.000000 -0.000000
RightUpLeg  -15.825018 -15.340837 -4.059158
RightLeg  60.737942 -0.000000 -0.000000
RightFoot  26.536345 -4.387869 -16.880452
RightToeBase  -11.007769 0.000000 -0.000000
Spine  -14.507378 -2.984917 -4.796787
Spine1  14.452459 -0.034963 3.290502
Neck  10.513512 2.290203 -5.298470
Head  -9.530140 2.933281 1.470164
LeftShoulder  -7.181017 -8.605124 -27.489860
LeftArm  -1.191947 46.752281 -39.756878
LeftForeArm  26.052595 -0.000000 0.000000
LeftHand  2.882589 -3.568423 -0.902018
LeftHandThumb  0.000000 -0.000000 0.000000
RightShoulder  1.238928 7.120642 22.712211
RightArm  -0.977669 -47.729533 40.684860
RightForeArm  33.996632 -0.000000 0.000000
RightHand  7.034213 12.588101 -1.081205
RightHandThumb  0.000000 -0.000000 0.000000
